<svg width="47" height="48" viewBox="0 0 47 48" fill="none" xmlns="http://www.w3.org/2000/svg">
<path d="M25.8986 0.669009C27.6013 0.662475 29.3041 0.679588 31.0063 0.720342L31.459 0.736675C31.9816 0.755342 32.4973 0.778675 33.1203 0.806675C35.603 0.923342 37.297 1.31534 38.7833 1.89168C40.3233 2.48434 41.6206 3.28701 42.918 4.58434C44.1042 5.75009 45.0222 7.16022 45.6083 8.71667C46.1846 10.203 46.5766 11.8993 46.6933 14.382C46.7213 15.0027 46.7446 15.5207 46.7633 16.0433L46.7773 16.496C46.8188 18.1975 46.8366 19.8994 46.831 21.6013L46.8333 23.342V26.3987C46.839 28.1014 46.8212 29.8041 46.7796 31.5063L46.7656 31.959C46.747 32.4817 46.7236 32.9973 46.6956 33.6203C46.579 36.103 46.1823 37.797 45.6083 39.2833C45.0241 40.8414 44.1059 42.2527 42.918 43.418C41.7512 44.6041 40.3404 45.5221 38.7833 46.1083C37.297 46.6847 35.603 47.0767 33.1203 47.1933C32.4973 47.2213 31.9816 47.2447 31.459 47.2633L31.0063 47.2773C29.3041 47.3188 27.6014 47.3367 25.8986 47.331L24.158 47.3333H21.1036C19.4009 47.3391 17.6982 47.3212 15.996 47.2797L15.5433 47.2657C14.9894 47.2456 14.4356 47.2223 13.882 47.1957C11.3993 47.079 9.7053 46.6823 8.21663 46.1083C6.65956 45.5235 5.24918 44.6053 4.0843 43.418C2.89674 42.252 1.97782 40.841 1.39163 39.2833C0.815296 37.797 0.423296 36.103 0.306629 33.6203C0.280643 33.0667 0.257309 32.5129 0.236629 31.959L0.224963 31.5063C0.181945 29.8041 0.162498 28.1014 0.16663 26.3987V21.6013C0.160117 19.8994 0.17723 18.1975 0.217963 16.496L0.234296 16.0433C0.252963 15.5207 0.276296 15.0027 0.304296 14.382C0.420963 11.897 0.812963 10.2053 1.3893 8.71667C1.97583 7.15946 2.89655 5.74971 4.08663 4.58668C5.25072 3.39843 6.66021 2.47868 8.21663 1.89168C9.7053 1.31534 11.397 0.923342 13.882 0.806675L15.5433 0.736675L15.996 0.725009C17.6974 0.682012 19.3993 0.662566 21.1013 0.666675L25.8986 0.669009ZM23.5 12.3357C21.9541 12.3138 20.4194 12.5994 18.9849 13.1758C17.5504 13.7523 16.2448 14.6081 15.1439 15.6935C14.0431 16.7789 13.1689 18.0723 12.5722 19.4985C11.9756 20.9246 11.6683 22.4552 11.6683 24.0012C11.6683 25.5471 11.9756 27.0777 12.5722 28.5039C13.1689 29.9301 14.0431 31.2235 15.1439 32.3089C16.2448 33.3943 17.5504 34.2501 18.9849 34.8265C20.4194 35.403 21.9541 35.6885 23.5 35.6667C26.5942 35.6667 29.5616 34.4375 31.7495 32.2496C33.9375 30.0617 35.1666 27.0942 35.1666 24C35.1666 20.9058 33.9375 17.9384 31.7495 15.7504C29.5616 13.5625 26.5942 12.3357 23.5 12.3357ZM23.5 17.0023C24.4298 16.9852 25.3538 17.1535 26.2178 17.4975C27.0819 17.8414 27.8687 18.3541 28.5324 19.0056C29.1961 19.6571 29.7234 20.4343 30.0833 21.2918C30.4433 22.1493 30.6288 23.07 30.6289 24C30.6291 24.93 30.4439 25.8507 30.0842 26.7084C29.7246 27.566 29.1976 28.3434 28.5341 28.9951C27.8706 29.6468 27.0839 30.1597 26.22 30.504C25.356 30.8482 24.4322 31.0168 23.5023 31C21.6458 31 19.8653 30.2625 18.5525 28.9498C17.2398 27.637 16.5023 25.8565 16.5023 24C16.5023 22.1435 17.2398 20.363 18.5525 19.0503C19.8653 17.7375 21.6458 17 23.5023 17L23.5 17.0023ZM35.75 8.83568C34.9972 8.8658 34.2853 9.18603 33.7634 9.72927C33.2414 10.2725 32.9499 10.9967 32.9499 11.75C32.9499 12.5034 33.2414 13.2275 33.7634 13.7707C34.2853 14.314 34.9972 14.6342 35.75 14.6643C36.5235 14.6643 37.2654 14.3571 37.8124 13.8101C38.3593 13.2631 38.6666 12.5212 38.6666 11.7477C38.6666 10.9741 38.3593 10.2323 37.8124 9.68528C37.2654 9.1383 36.5235 8.83101 35.75 8.83101V8.83568Z" fill="#FFE644"/>
</svg>
