<svg width="249" height="97" viewBox="0 0 249 97" fill="none" xmlns="http://www.w3.org/2000/svg">
<g clip-path="url(#clip0_34_2732)">
<path fill-rule="evenodd" clip-rule="evenodd" d="M121.453 1.66594C119.874 2.57829 114.408 5.69541 109.306 8.5924L100.029 13.8602V22.4813C100.029 27.2226 100.158 31.03 100.316 30.9418C101.14 30.4805 110.099 25.3971 114.888 22.6731C117.906 20.9562 120.443 19.5518 120.525 19.5518C120.608 19.5518 121.544 19.0164 122.604 18.3625C123.925 17.5476 124.68 17.2891 125.001 17.5418C125.259 17.7443 126.847 18.6505 128.53 19.5552C130.213 20.4595 132.193 21.5402 132.93 21.9567L134.269 22.7138L140.964 18.825C148.801 14.2721 148.924 14.1919 148.424 13.9641C148.213 13.8682 142.725 10.6856 136.227 6.89156C129.73 3.09718 124.393 -0.00383148 124.368 3.55328e-06C124.342 0.00383859 123.031 0.753585 121.453 1.66594ZM111.793 30.0038C110.583 30.8786 109.723 31.7242 109.881 31.8829C110.427 32.4302 123.175 39.5143 123.999 39.7283C124.598 39.8836 126.72 38.8025 131.735 35.7874C135.536 33.5021 138.651 31.5271 138.657 31.399C138.668 31.17 134.639 28.3723 134.299 28.3723C134.204 28.3723 131.942 29.6759 129.273 31.2693L124.419 34.1667L119.373 31.2693C116.597 29.6759 114.251 28.3816 114.159 28.3931C114.067 28.4046 113.003 29.1294 111.793 30.0038ZM102.749 35.4372C100.352 37.1289 100.349 37.1342 101.24 37.6953C102.285 38.3542 120.504 49.1413 122.883 50.5101L124.504 51.4428L130.534 47.8815C133.85 45.923 137.783 43.5365 139.273 42.5781C140.763 41.6201 143.386 40.0596 145.101 39.1104C146.817 38.1613 148.223 37.2048 148.226 36.9851C148.235 36.3876 143.335 33.6298 142.7 33.8745C142.165 34.08 140.197 35.257 129.533 41.7489L124.415 44.8645L123.221 44.1443C122.564 43.7481 119.702 42.0791 116.862 40.4355C114.021 38.7918 110.261 36.6131 108.505 35.5941C106.749 34.5751 105.276 33.7414 105.232 33.7414C105.188 33.7414 104.071 34.5046 102.749 35.4372ZM9.49172 73.258C5.86803 73.9767 2.73786 76.3049 1.0056 79.5701C0.117655 81.2444 -0.0101225 81.9255 0.000589455 84.9391C0.00938852 87.451 0.197993 88.7711 0.693801 89.7885C1.90195 92.2667 3.92573 94.2483 6.59453 95.5652C9.0181 96.7614 9.37427 96.8277 13.369 96.8277C17.5815 96.8277 17.5884 96.8262 21.0284 95.1311C22.9221 94.198 24.7765 93.454 25.1495 93.4778C25.5657 93.5047 25.7306 93.3455 25.5764 93.0652C24.9283 91.8855 22.9199 88.9847 22.745 88.9759C22.6371 88.9705 22.3789 89.3544 22.1712 89.8288C21.96 90.3112 20.7817 91.1986 19.4982 91.8422C17.4878 92.8496 16.7988 92.9927 13.9509 92.9927C11.0912 92.9927 10.483 92.8653 8.90677 91.9365C6.74679 90.6636 5.72954 89.3153 5.13044 86.9303C3.63881 80.9917 8.17798 76.2865 14.8752 76.8292C17.9369 77.0769 21.5728 78.6819 22.1712 80.0494C22.6624 81.1716 22.789 81.1401 23.7366 79.6613C24.1743 78.9783 24.8572 77.9179 25.2543 77.3051C25.806 76.4541 25.8442 76.2374 25.4153 76.3881C25.1066 76.4963 23.6919 76.0035 22.2714 75.2925C17.7843 73.0459 13.7776 72.4081 9.49172 73.258ZM157.884 73.4532C155.125 74.1979 153.815 74.9327 151.999 76.7528C148.08 80.6818 147.603 86.964 150.856 91.8142C152.322 93.999 155.707 96.0596 158.787 96.6425C162.879 97.4164 166.097 96.9589 170.156 95.0252C172.057 94.1194 173.926 93.4318 174.309 93.4966C174.851 93.589 174.651 93.0997 173.406 91.2903C171.775 88.9218 171.186 88.4719 171.186 89.5948C171.186 90.801 167.974 92.5467 164.907 93.0076C158.843 93.9192 154.371 90.9118 154.04 85.6984C153.846 82.6622 154.39 81.0036 156.158 79.2318C158.652 76.7306 162.829 76.0595 167.043 77.4826C169.807 78.4161 171.158 79.3181 171.175 80.2412C171.195 81.4005 171.797 80.9829 173.236 78.8088C174.743 76.5339 174.887 76.1576 174.151 76.4111C173.888 76.5016 172.371 75.9202 170.779 75.1187C169.188 74.3172 167.122 73.4854 166.188 73.2695C163.84 72.7268 160.285 72.8054 157.884 73.4532ZM118.913 76.8855C118.726 77.3733 117.375 77.4608 110.011 77.4608C103.769 77.4608 101.201 77.3315 100.87 77.0006C100.513 76.6428 100.414 77.1755 100.423 79.3975C100.432 81.5255 100.534 82.0835 100.824 81.5834C101.147 81.0281 101.772 80.9123 104.447 80.9123H107.68V88.0727C107.68 94.1976 107.589 95.3347 107.047 95.9345C106.438 96.6091 106.542 96.6359 109.725 96.6359C111.677 96.6359 113.036 96.4787 113.036 96.2524C113.036 96.0415 112.864 95.8689 112.653 95.8689C112.412 95.8689 112.271 93.1204 112.271 88.3906V80.9123H115.206C117.4 80.9123 118.317 81.0726 118.84 81.547C119.512 82.1568 119.54 82.0659 119.54 79.246C119.54 76.3858 119.361 75.7139 118.913 76.8855ZM129.246 77.7822C126.625 78.6903 125.481 79.4876 124.144 81.338C121.712 84.704 121.759 89.6132 124.256 92.8665C127.669 97.314 135.209 98.3563 140.346 95.0904C144.267 92.598 145.629 86.9732 143.399 82.4866C141.147 77.9578 134.814 75.8528 129.246 77.7822ZM209.564 77.605C207.735 78.2071 206.021 79.4462 205.344 80.6569C204.565 82.0505 204.735 85.262 205.651 86.429C206.928 88.0566 208.42 88.5881 213.33 89.1649C215.866 89.4629 218.189 89.9135 218.494 90.1663C218.797 90.419 218.994 91.0721 218.931 91.6174C218.845 92.3633 218.484 92.7227 217.477 93.0671C214.52 94.078 208.398 93.2101 207.043 91.5875C206.669 91.1407 206.296 90.8424 206.214 90.9248C206.044 91.0951 204.47 95.041 204.47 95.296C204.47 95.3869 204.72 95.365 205.026 95.2473C205.332 95.1299 206.58 95.4076 207.799 95.8651C212.161 97.5011 217.901 97.2511 220.846 95.2971C222.696 94.0699 223.417 92.7618 223.372 90.7127C223.297 87.2838 220.949 85.6574 215.228 85.071C213.203 84.8635 210.891 84.5234 210.089 84.3148C208.807 83.9811 208.646 83.8116 208.75 82.9061C208.918 81.4588 210.577 80.734 213.687 80.7493C216.543 80.7639 219.492 81.723 220.318 82.9058C220.839 83.6513 220.906 83.5999 221.848 81.7361C223.025 79.4078 223.028 79.3783 222.114 79.3783C221.719 79.3783 220.418 78.93 219.224 78.382C216.565 77.1616 212.022 76.7965 209.564 77.605ZM30.1259 78.1346C30.7051 78.7758 30.7839 79.8454 30.7839 87.0484C30.7839 94.1263 30.6982 95.3282 30.1508 95.9345C29.5417 96.6095 29.6538 96.6356 33.1157 96.6237C36.19 96.6133 36.6162 96.5374 36.0442 96.1021C35.4926 95.6822 35.3747 94.9762 35.3747 92.0876V88.5824L37.3832 88.5881C38.4877 88.5916 39.5776 88.7208 39.8045 88.8758C40.4939 89.3459 44.1738 94.8024 44.1738 95.3539C44.1738 95.6373 44.0016 95.8689 43.7912 95.8689C43.5808 95.8689 43.4087 96.0415 43.4087 96.2524C43.4087 96.4852 45.0265 96.6314 47.5213 96.6237L51.6339 96.6118L50.5612 95.8099C49.5424 95.0482 44.7626 88.995 45.012 88.7826C45.077 88.7273 45.9336 88.3304 46.9153 87.9009C49.2237 86.8911 50.0764 85.575 50.0764 83.0216C50.0764 80.6979 49.3258 79.3219 47.5178 78.3317C46.4608 77.7526 45.0388 77.6345 37.8729 77.529C29.6343 77.4079 29.4809 77.4198 30.1259 78.1346ZM53.4415 78.6243C54.2158 79.264 56.2346 81.705 57.9279 84.049L61.0068 88.3101V91.9097C61.0068 94.7556 60.8867 95.5556 60.4329 95.7301C59.0297 96.2701 60.112 96.6359 63.1109 96.6359C64.8994 96.6359 66.3627 96.5374 66.3627 96.417C66.3627 96.2962 66.1045 95.9387 65.7889 95.6224C65.3654 95.1982 65.215 94.1601 65.215 91.6654V88.2836L68.6057 83.7096C70.4704 81.1938 72.4934 78.7643 73.1009 78.3103L74.2054 77.4849L70.0928 77.473C67.5981 77.4654 65.9802 77.6115 65.9802 77.8443C65.9802 78.0552 66.1523 78.2278 66.3627 78.2278C67.1478 78.2278 66.7009 79.6943 65.3107 81.6809C64.5218 82.8084 63.6767 83.7959 63.4334 83.8756C62.9238 84.0425 59.8591 79.9217 59.8591 79.0704C59.8591 78.7589 60.1606 78.275 60.5286 77.9946C61.0975 77.562 60.5083 77.4834 56.6157 77.473L52.0333 77.4608L53.4415 78.6243ZM77.0747 77.6798C77.0747 77.8006 77.3329 78.158 77.6485 78.4744C78.1217 78.9488 78.2224 80.4498 78.2224 87.0484C78.2224 93.6469 78.1217 95.148 77.6485 95.6224C77.3329 95.9387 77.0747 96.2962 77.0747 96.417C77.0747 96.5374 78.538 96.6359 80.3265 96.6359C82.115 96.6359 83.5783 96.5374 83.5783 96.417C83.5783 96.2962 83.3136 95.9322 82.9895 95.6074C82.5354 95.1522 82.4264 94.3043 82.5113 91.8959L82.6219 88.7741L87.9778 88.5824C94.6024 88.3454 96.1858 87.6604 96.9846 84.6864C97.8209 81.5723 95.9896 78.6197 92.7599 77.8761C90.9779 77.4658 77.0747 77.292 77.0747 77.6798ZM185.89 78.2002C186.35 78.7095 186.472 79.2172 186.281 79.8301C185.618 81.9585 178.691 95.3554 177.942 95.9564C177.144 96.5961 177.238 96.6191 180.655 96.6275C182.601 96.6321 184.194 96.5255 184.194 96.3905C184.194 96.2555 183.894 95.9253 183.528 95.6569C182.899 95.1967 182.91 95.0674 183.714 93.4095L184.566 91.6504H188.933H193.3L194.103 93.0145C195.071 94.6601 195.092 95.0264 194.272 95.9345C193.663 96.6099 193.787 96.6359 197.597 96.6359C201.483 96.6359 201.54 96.6233 200.784 95.9173C199.851 95.0463 191.845 80.1361 191.845 79.2702C191.845 78.9327 192.017 78.5499 192.228 78.4195C193.295 77.7584 192.267 77.4608 188.916 77.4608C185.293 77.4608 185.235 77.475 185.89 78.2002ZM227.424 77.6798C227.424 77.8006 227.682 78.158 227.998 78.4744C228.471 78.9488 228.572 80.4498 228.572 87.0484C228.572 93.6469 228.471 95.148 227.998 95.6224C227.682 95.9387 227.424 96.2962 227.424 96.417C227.424 96.5374 228.887 96.6359 230.676 96.6359C232.464 96.6359 233.928 96.5374 233.928 96.417C233.928 96.2962 233.663 95.9322 233.34 95.6082C232.882 95.1491 232.776 94.2835 232.861 91.7045L232.971 88.3906L238.231 88.284L243.492 88.1774V91.8851C243.492 94.9662 243.378 95.6787 242.822 96.1021C242.25 96.5374 242.676 96.6133 245.751 96.6237C249.213 96.6356 249.325 96.6095 248.716 95.9345C248.168 95.3282 248.083 94.1263 248.083 87.0484C248.083 79.9704 248.168 78.7685 248.716 78.1622C249.325 77.4872 249.213 77.4612 245.751 77.473C242.676 77.4834 242.25 77.5594 242.822 77.9946C243.369 78.4107 243.492 79.1122 243.492 81.8281V85.1523L238.231 85.0457L232.971 84.9391L232.86 82.0095C232.775 79.7718 232.888 78.9407 233.338 78.4897C233.662 78.1649 233.928 77.8006 233.928 77.6798C233.928 77.5593 232.464 77.4608 230.676 77.4608C228.887 77.4608 227.424 77.5593 227.424 77.6798ZM135.728 81.0845C138.488 82.0713 139.851 84.0252 139.874 87.0292C139.899 90.2449 138.128 92.524 135.07 93.2097C132.654 93.7516 130.535 93.2607 128.966 91.7954C126.765 89.7406 126.256 86.9003 127.592 84.1334C129.063 81.0887 132.323 79.8669 135.728 81.0845ZM44.8536 81.5094C45.6995 82.1031 45.955 83.3744 45.4034 84.2438C44.8444 85.1255 42.9377 85.5144 39.1756 85.5144H35.3747V83.2133V80.9123H39.689C42.9748 80.9123 44.2063 81.0546 44.8536 81.5094ZM91.9948 81.6793C92.9034 82.5901 92.9792 83.7057 92.1865 84.5008C91.4852 85.2033 88.4446 85.6091 85.1086 85.4449L82.6219 85.3226L82.5071 83.1175L82.3923 80.9123H86.811C90.7197 80.9123 91.318 81.0009 91.9948 81.6793ZM191.644 88.9114C191.458 89.0978 186.389 88.9931 186.195 88.7987C186.085 88.6894 187.96 84.6001 188.556 83.6482C188.792 83.2728 189.301 83.9174 190.355 85.9266C191.164 87.4679 191.744 88.8109 191.644 88.9114Z" fill="white"/>
<path d="M109.51 8.5924C114.612 5.69541 120.079 2.57829 121.657 1.66594C123.235 0.753585 124.547 0.00383859 124.572 3.55328e-06C124.597 -0.00383148 129.934 3.09718 136.431 6.89156C142.929 10.6856 148.417 13.8682 148.628 13.9641C149.129 14.1919 149.005 14.2721 141.168 18.825L134.473 22.7138L133.134 21.9567C132.397 21.5402 130.418 20.4595 128.734 19.5552C127.051 18.6505 125.463 17.7443 125.205 17.5418C124.884 17.2891 124.129 17.5476 122.808 18.3625C121.748 19.0164 120.812 19.5518 120.729 19.5518C120.647 19.5518 118.11 20.9562 115.092 22.6731C115.01 22.6731 112.473 24.0775 109.455 25.7944C109.372 25.7944 103.251 29.3468 100.233 31.0638V22.4813V13.8602L109.51 8.5924Z" fill="#00FF71"/>
</g>
<defs>
<clipPath id="clip0_34_2732">
<rect width="249" height="97" fill="white"/>
</clipPath>
</defs>
</svg>
