<svg width="250" height="48" viewBox="0 0 250 48" fill="none" xmlns="http://www.w3.org/2000/svg">
<path fill-rule="evenodd" clip-rule="evenodd" d="M21.7554 5.17143C20.526 5.88089 16.2677 8.30481 12.2928 10.5575L5.06543 14.6539V21.3578C5.06543 25.0447 5.16586 28.0054 5.28895 27.9368C5.93152 27.578 12.9106 23.6251 16.6414 21.5069C18.9923 20.1718 20.9686 19.0797 21.033 19.0797C21.0976 19.0797 21.8263 18.6634 22.6525 18.1549C23.6816 17.5212 24.2696 17.3202 24.5197 17.5168C24.7206 17.6742 25.9577 18.3789 27.2691 19.0824C28.5804 19.7856 30.1227 20.626 30.6965 20.9498L31.7396 21.5385L36.9552 18.5146C43.0611 14.9742 43.157 14.9118 42.7669 14.7347C42.603 14.6601 38.3274 12.1852 33.2655 9.23495C28.2037 6.28439 24.0461 3.873 24.0264 3.87598C24.0068 3.87896 22.9848 4.46198 21.7554 5.17143ZM14.23 27.2073C13.2876 27.8876 12.6176 28.5451 12.741 28.6686C13.1663 29.0942 23.0975 34.6028 23.7391 34.7692C24.2056 34.89 25.859 34.0493 29.7657 31.7048C32.727 29.9277 35.1536 28.3919 35.1584 28.2923C35.1667 28.1142 32.0281 25.9387 31.7631 25.9387C31.6892 25.9387 29.9272 26.9524 27.8475 28.1915L24.0667 30.4445L20.135 28.1915C17.9724 26.9524 16.1449 25.9459 16.0734 25.9548C16.0021 25.9638 15.1727 26.5274 14.23 27.2073ZM7.18476 31.4325C5.31757 32.7479 5.31488 32.7521 6.00901 33.1884C6.82354 33.7007 21.0166 42.089 22.8695 43.1533L24.1322 43.8786L28.8302 41.1093C31.4138 39.5863 34.4776 37.7305 35.6385 36.9853C36.7993 36.2403 38.8427 35.0269 40.1788 34.2888C41.5152 33.5507 42.6104 32.807 42.6131 32.6361C42.6203 32.1715 38.803 30.027 38.3077 30.2172C37.8913 30.3771 36.3583 31.2923 28.0505 36.3405L24.0631 38.7633L23.1329 38.2032C22.6212 37.8951 20.3919 36.5973 18.179 35.3192C15.9661 34.041 13.0364 32.3468 11.6687 31.5544C10.301 30.7621 9.15359 30.1138 9.11902 30.1138C9.08444 30.1138 8.21418 30.7072 7.18476 31.4325ZM58.3411 14.3079C55.5181 14.8668 53.0796 16.6773 51.7301 19.2163C51.0383 20.5183 50.9388 21.0479 50.9471 23.3913C50.954 25.3447 51.1009 26.3711 51.4872 27.1623C52.4284 29.0894 54.005 30.6303 56.0841 31.6544C57.9721 32.5845 58.2496 32.6361 61.3617 32.6361C64.6434 32.6361 64.6487 32.6349 67.3287 31.3168C68.8039 30.5912 70.2485 30.0127 70.5391 30.0312C70.8634 30.052 70.9918 29.9283 70.8717 29.7103C70.3668 28.793 68.8022 26.5372 68.6659 26.5304C68.5819 26.5262 68.3807 26.8247 68.2189 27.1936C68.0544 27.5688 67.1364 28.2589 66.1365 28.7593C64.5703 29.5427 64.0336 29.6539 61.815 29.6539C59.5872 29.6539 59.1133 29.5549 57.8854 28.8326C56.2027 27.8428 55.4102 26.7943 54.9435 24.9397C53.7815 20.3218 57.3176 16.663 62.5351 17.0849C64.9202 17.2776 67.7528 18.5256 68.2189 19.5891C68.6016 20.4617 68.7002 20.4372 69.4385 19.2873C69.7794 18.7561 70.3114 17.9316 70.6208 17.455C71.0505 16.7933 71.0803 16.6248 70.7462 16.742C70.5057 16.8261 69.4036 16.4429 68.297 15.89C64.8013 14.143 61.68 13.6471 58.3411 14.3079ZM173.945 14.4597C171.796 15.0389 170.774 15.6102 169.36 17.0256C166.307 20.0808 165.936 24.9659 168.47 28.7375C169.612 30.4364 172.248 32.0388 174.648 32.4921C177.836 33.0939 180.343 32.7381 183.505 31.2345C184.986 30.5301 186.442 29.9954 186.741 30.0458C187.163 30.1177 187.007 29.7371 186.037 28.3301C184.766 26.4883 184.308 26.1385 184.308 27.0117C184.308 27.9496 181.805 29.3071 179.416 29.6655C174.692 30.3744 171.208 28.0358 170.95 23.9818C170.799 21.6208 171.222 20.331 172.6 18.9533C174.543 17.0083 177.797 16.4864 181.08 17.5931C183.233 18.319 184.285 19.0204 184.298 19.7382C184.315 20.6397 184.783 20.3149 185.905 18.6243C187.079 16.8553 187.19 16.5628 186.617 16.7599C186.413 16.8303 185.23 16.3782 183.991 15.7549C182.751 15.1316 181.141 14.4848 180.414 14.3169C178.584 13.8949 175.815 13.956 173.945 14.4597ZM143.585 17.1288C143.439 17.5081 142.387 17.5761 136.65 17.5761C131.787 17.5761 129.786 17.4756 129.529 17.2182C129.251 16.94 129.173 17.3542 129.18 19.0821C129.187 20.7369 129.267 21.1708 129.493 20.7819C129.744 20.3501 130.231 20.2601 132.315 20.2601H134.834V25.8281C134.834 30.5909 134.763 31.4751 134.34 31.9415C133.866 32.4661 133.947 32.487 136.427 32.487C137.948 32.487 139.006 32.3647 139.006 32.1888C139.006 32.0247 138.872 31.8905 138.708 31.8905C138.52 31.8905 138.41 29.7532 138.41 26.0753V20.2601H140.696C142.406 20.2601 143.12 20.3847 143.528 20.7536C144.051 21.2278 144.073 21.1571 144.073 18.9643C144.073 16.7402 143.934 16.2177 143.585 17.1288ZM151.635 17.826C149.593 18.5322 148.702 19.1522 147.66 20.5911C145.765 23.2085 145.802 27.026 147.747 29.5558C150.406 33.0142 156.28 33.8248 160.282 31.2852C163.336 29.347 164.397 24.9731 162.66 21.4842C160.906 17.9626 155.973 16.3257 151.635 17.826ZM214.206 17.6882C212.781 18.1564 211.445 19.12 210.918 20.0614C210.311 21.1452 210.444 23.6424 211.157 24.5499C212.152 25.8156 213.314 26.2289 217.139 26.6774C219.115 26.9091 220.925 27.2595 221.162 27.4561C221.399 27.6526 221.552 28.1604 221.503 28.5845C221.435 29.1645 221.154 29.444 220.37 29.7118C218.066 30.4979 213.297 29.823 212.241 28.5612C211.95 28.2138 211.66 27.9818 211.596 28.0459C211.464 28.1783 210.237 31.2467 210.237 31.445C210.237 31.5157 210.432 31.4987 210.67 31.4071C210.908 31.3159 211.88 31.5318 212.83 31.8876C216.229 33.1598 220.7 32.9653 222.995 31.4459C224.436 30.4916 224.997 29.4744 224.962 27.881C224.904 25.2146 223.074 23.9499 218.618 23.4939C217.041 23.3326 215.239 23.0681 214.615 22.9058C213.616 22.6464 213.49 22.5146 213.572 21.8105C213.702 20.685 214.994 20.1214 217.417 20.1333C219.642 20.1447 221.939 20.8905 222.583 21.8102C222.989 22.3899 223.041 22.35 223.775 20.9006C224.692 19.0902 224.695 19.0672 223.982 19.0672C223.674 19.0672 222.661 18.7186 221.731 18.2924C219.66 17.3435 216.121 17.0596 214.206 17.6882ZM74.416 18.1001C74.8672 18.5987 74.9286 19.4304 74.9286 25.0315C74.9286 30.5354 74.8618 31.4701 74.4353 31.9415C73.9609 32.4664 74.0482 32.4867 76.7451 32.4774C79.1401 32.4694 79.4721 32.4103 79.0266 32.0719C78.5968 31.7453 78.505 31.1963 78.505 28.9501V26.2244L80.0697 26.2289C80.9301 26.2316 81.7792 26.3321 81.956 26.4526C82.493 26.8182 85.3598 31.0612 85.3598 31.49C85.3598 31.7104 85.2257 31.8905 85.0618 31.8905C84.8979 31.8905 84.7637 32.0247 84.7637 32.1888C84.7637 32.3698 86.0241 32.4834 87.9676 32.4774L91.1715 32.4682L90.3358 31.8446C89.5422 31.2524 85.8185 26.5453 86.0128 26.3801C86.0635 26.3371 86.7308 26.0285 87.4955 25.6945C89.2939 24.9093 89.9582 23.8858 89.9582 21.9003C89.9582 20.0934 89.3735 19.0233 87.965 18.2534C87.1415 17.803 86.0337 17.7112 80.4512 17.6292C74.033 17.5349 73.9135 17.5442 74.416 18.1001ZM92.5797 18.4809C93.183 18.9783 94.7557 20.8765 96.0748 22.6992L98.4734 26.0127V28.8118C98.4734 31.0248 98.3798 31.6469 98.0263 31.7826C96.9331 32.2025 97.7763 32.487 100.113 32.487C101.506 32.487 102.646 32.4103 102.646 32.3167C102.646 32.2228 102.445 31.9448 102.199 31.6988C101.869 31.369 101.752 30.5617 101.752 28.6218V25.9921L104.393 22.4353C105.846 20.479 107.422 18.5898 107.895 18.2367L108.756 17.5949L105.552 17.5856C103.608 17.5797 102.348 17.6933 102.348 17.8743C102.348 18.0383 102.482 18.1725 102.646 18.1725C103.257 18.1725 102.909 19.3129 101.826 20.8577C101.212 21.7345 100.553 22.5024 100.364 22.5644C99.9669 22.6941 97.5793 19.4898 97.5793 18.8277C97.5793 18.5856 97.8141 18.2092 98.1009 17.9912C98.544 17.6548 98.0851 17.5937 95.0525 17.5856L91.4827 17.5761L92.5797 18.4809ZM110.991 17.7464C110.991 17.8403 111.192 18.1183 111.438 18.3643C111.807 18.7332 111.885 19.9004 111.885 25.0315C111.885 30.1627 111.807 31.3299 111.438 31.6988C111.192 31.9448 110.991 32.2228 110.991 32.3167C110.991 32.4103 112.131 32.487 113.524 32.487C114.918 32.487 116.058 32.4103 116.058 32.3167C116.058 32.2228 115.851 31.9398 115.599 31.6872C115.245 31.3332 115.16 30.6738 115.226 28.801L115.312 26.3735L119.485 26.2244C124.646 26.0401 125.879 25.5075 126.502 23.1948C127.153 20.7733 125.726 18.4773 123.21 17.8991C121.822 17.58 110.991 17.4449 110.991 17.7464ZM195.763 18.1511C196.121 18.5471 196.216 18.9419 196.067 19.4185C195.551 21.0736 190.154 31.4912 189.571 31.9585C188.949 32.456 189.022 32.4739 191.684 32.4804C193.2 32.484 194.441 32.4011 194.441 32.2961C194.441 32.1911 194.207 31.9344 193.922 31.7256C193.433 31.3678 193.441 31.2673 194.067 29.9781L194.731 28.6102H198.133H201.535L202.16 29.6709C202.915 30.9506 202.931 31.2354 202.293 31.9415C201.818 32.4667 201.914 32.487 204.882 32.487C207.91 32.487 207.954 32.4771 207.366 31.9281C206.639 31.2509 200.402 19.6565 200.402 18.9831C200.402 18.7207 200.536 18.423 200.7 18.3216C201.531 17.8075 200.731 17.5761 198.12 17.5761C195.297 17.5761 195.252 17.5871 195.763 18.1511ZM228.119 17.7464C228.119 17.8403 228.32 18.1183 228.566 18.3643C228.935 18.7332 229.013 19.9004 229.013 25.0315C229.013 30.1627 228.935 31.3299 228.566 31.6988C228.32 31.9448 228.119 32.2228 228.119 32.3167C228.119 32.4103 229.259 32.487 230.652 32.487C232.046 32.487 233.186 32.4103 233.186 32.3167C233.186 32.2228 232.979 31.9398 232.727 31.6878C232.371 31.3308 232.288 30.6577 232.355 28.6522L232.44 26.0753L236.538 25.9924L240.636 25.9095V28.7927C240.636 31.1885 240.548 31.7426 240.115 32.0719C239.669 32.4103 240.001 32.4694 242.396 32.4774C245.093 32.4867 245.181 32.4664 244.706 31.9415C244.28 31.4701 244.213 30.5354 244.213 25.0315C244.213 19.5276 244.28 18.593 244.706 18.1215C245.181 17.5967 245.093 17.5764 242.396 17.5856C240.001 17.5937 239.669 17.6528 240.115 17.9912C240.541 18.3148 240.636 18.8602 240.636 20.9722V23.5572L236.538 23.4743L232.44 23.3913L232.354 21.1133C232.288 19.3732 232.376 18.7269 232.727 18.3762C232.979 18.1236 233.186 17.8403 233.186 17.7464C233.186 17.6527 232.046 17.5761 230.652 17.5761C229.259 17.5761 228.119 17.6527 228.119 17.7464ZM156.685 20.3939C158.835 21.1613 159.896 22.6807 159.914 25.0166C159.934 27.5172 158.554 29.2895 156.171 29.8227C154.29 30.2441 152.638 29.8624 151.416 28.7229C149.702 27.125 149.305 24.9164 150.346 22.7648C151.492 20.3972 154.032 19.4471 156.685 20.3939ZM85.8894 20.7244C86.5484 21.186 86.7475 22.1746 86.3177 22.8507C85.8823 23.5363 84.3969 23.8387 81.466 23.8387H78.505V22.0494V20.2601H81.8659C84.4258 20.2601 85.3852 20.3707 85.8894 20.7244ZM122.614 20.8565C123.322 21.5648 123.381 22.4323 122.764 23.0505C122.217 23.5968 119.849 23.9123 117.25 23.7847L115.312 23.6896L115.223 21.9748L115.134 20.2601H118.576C121.621 20.2601 122.087 20.3289 122.614 20.8565ZM200.245 26.4803C200.1 26.6252 196.151 26.5438 196 26.3926C195.915 26.3076 197.375 23.1277 197.84 22.3875C198.023 22.0956 198.419 22.5969 199.241 24.1593C199.871 25.3578 200.323 26.4021 200.245 26.4803Z" fill="white"/>
<path d="M12.4517 10.5575C16.4266 8.30481 20.685 5.88089 21.9144 5.17143C23.1438 4.46198 24.1657 3.87896 24.1854 3.87598C24.2051 3.873 28.3627 6.28439 33.4245 9.23495C38.4863 12.1852 42.762 14.6601 42.9259 14.7347C43.316 14.9118 43.22 14.9741 37.1142 18.5146L31.8986 21.5385L30.8554 20.9498C30.2817 20.626 28.7394 19.7856 27.428 19.0824C26.1167 18.3789 24.8795 17.6742 24.6786 17.5168C24.4286 17.3202 23.8406 17.5212 22.8115 18.1549C21.9853 18.6634 21.2566 19.0797 21.1919 19.0797C21.1275 19.0797 19.1513 20.1718 16.8004 21.5069C16.736 21.5069 14.7597 22.599 12.4088 23.9341C12.3444 23.9341 7.57527 26.6965 5.22437 28.0316V21.3578V14.6539L12.4517 10.5575Z" fill="#00FF71"/>
</svg>
