<svg width="665" height="916" viewBox="0 0 665 916" fill="none" xmlns="http://www.w3.org/2000/svg">
<path d="M100.327 75L66.738 93.688L50.0477 135.284L50.2098 135.485L66.9463 158.17L100.535 139.459L117.226 97.8856L117.064 97.6846L100.327 75ZM99.9103 138.633L67.502 156.651L51.2978 134.592L67.502 94.5142L99.9103 76.4959L116.114 98.5554L99.9103 138.745" fill="white"/>
<path d="M100.535 140.888L66.9464 159.599L50.2561 201.195L50.395 201.395L67.1316 224.035L100.721 205.325L117.503 163.751L117.341 163.528L100.535 140.888ZM100.096 204.521L67.6871 222.54L51.483 200.502L67.6871 160.425L100.096 142.406L116.3 164.466L100.211 204.521" fill="white"/>
<path d="M151.579 80.0906L168.153 102.552L151.764 143.366L118.777 161.742L102.202 139.258L118.591 98.4437L151.579 80.0906Z" fill="white"/>
<path d="M49.3534 203.003L65.928 225.464L49.5386 266.301L16.5515 284.654L0.000137329 262.193L16.3664 221.378L49.3534 203.003Z" fill="white"/>
<path d="M140.12 198.649L156.718 221.111L140.328 261.947L107.341 280.301L90.7665 257.839L107.156 217.002L140.12 198.649Z" fill="white"/>
<path d="M251.442 83.8638L217.853 102.574L201.163 144.148L201.302 144.349L218.039 167.033L251.628 148.323L268.318 106.749L268.156 106.526L251.442 83.8638ZM251.003 147.497L218.594 165.515L202.39 143.478L218.478 103.289L250.887 85.2704L267.091 107.308L251.003 147.385" fill="white"/>
<path d="M175.584 318.48L141.995 337.191L125.281 378.764L125.443 378.965L142.18 401.65L175.769 382.94L192.459 341.366L192.297 341.165L175.584 318.48ZM175.144 382.114L142.736 400.132L126.531 378.095L142.62 338.017L175.028 319.999L191.232 342.036L175.028 382.225" fill="white"/>
<path d="M175.769 384.368L142.18 403.079L125.49 444.675L125.652 444.876L142.365 467.56L175.954 448.85L192.645 407.276L192.506 407.053L175.769 384.368ZM175.329 448.024L142.921 466.042L126.717 444.005L142.805 403.816L175.213 385.797L191.418 407.857L175.213 447.935" fill="white"/>
<path d="M226.812 323.571L243.386 346.032L226.997 386.869L194.01 405.222L177.436 382.761L193.825 341.924L226.812 323.571Z" fill="white"/>
<path d="M124.587 446.506L141.162 468.967L124.772 509.781L91.8083 528.157L75.2338 505.673L91.6 464.859L124.587 446.506Z" fill="white"/>
<path d="M215.377 442.13L231.951 464.591L215.562 505.428L182.575 523.781L166 501.32L182.39 460.483L215.377 442.13Z" fill="white"/>
<path d="M326.676 327.344L293.087 346.055L276.397 387.628L276.536 387.829L293.272 410.514L326.861 391.803L343.552 350.23L343.389 350.029L326.676 327.344ZM326.236 391L293.828 409.018L277.624 386.958L293.828 346.881L326.236 328.862L342.44 350.922L326.352 391" fill="white"/>
<path d="M300.703 87.6594L267.114 106.37L250.424 147.943L250.586 148.167L267.299 170.829L300.888 152.119L317.602 110.545L317.44 110.344L300.703 87.6594ZM300.379 151.315L267.971 169.333L251.766 147.274L267.855 107.084L300.263 89.0661L316.467 111.126L300.263 151.315" fill="white"/>
<path d="M300.911 153.57L267.322 172.28L250.609 213.854L250.771 214.055L267.508 236.74L301.097 218.052L317.787 176.456L317.625 176.255L300.911 153.57ZM300.472 217.203L268.063 235.221L251.859 213.184L268.063 172.995L300.472 154.977L316.583 177.148L300.379 217.203" fill="white"/>
<path d="M351.931 92.7502L368.529 115.212L352.117 156.048L319.153 174.402L302.578 151.94L318.967 111.126L351.931 92.7502Z" fill="white"/>
<path d="M249.729 215.685L266.304 238.146L249.915 278.983L216.928 297.336L200.353 274.875L216.742 234.038L249.729 215.685Z" fill="white"/>
<path d="M340.496 211.309L357.094 233.77L340.681 274.607L307.717 292.96L291.143 270.499L307.532 229.684L340.496 211.309Z" fill="white"/>
<path d="M374.201 435.543L374.733 435.856L379.201 433.355L383.645 435.856L384.178 435.565L379.201 432.774L374.201 435.543Z" fill="white"/>
<path d="M451.795 96.5459L418.206 115.256L401.516 156.83L401.678 157.031L418.438 179.716L452.004 161.005L468.694 119.431L468.532 119.208L451.795 96.5459ZM451.379 160.179L418.97 178.197L402.766 156.138L418.854 115.948L451.263 97.9302L467.467 119.99L451.379 160.179Z" fill="white"/>
<path d="M660.109 745.718V770.086C660.109 775.382 656.516 780.678 649.33 784.678V760.31C656.632 756.282 660.109 751.014 660.109 745.718Z" fill="#5618B8"/>
<path d="M137.747 769.889V745.521C137.747 750.873 141.369 756.254 148.672 760.311V784.678C141.399 780.622 137.747 775.213 137.747 769.889Z" fill="#5618B8"/>
<path d="M649.476 760.311L649.388 784.678L426.065 909.84L426.153 885.473L649.476 760.311Z" fill="#5618B8"/>
<path d="M373.543 885.473L373.485 909.84L148.701 784.678L148.76 760.311L373.543 885.473Z" fill="#5618B8"/>
<path d="M426.153 885.473V909.84C411.752 917.925 388.178 917.925 373.572 909.84V885.473C388.061 893.529 411.81 893.529 426.153 885.473Z" fill="#5618B8"/>
<path d="M649.3 730.928C663.906 739.013 663.906 752.225 649.447 760.31L426.153 885.473C411.723 893.558 388.178 893.558 373.572 885.473L148.906 760.31C134.3 752.225 134.3 739.013 148.731 730.928L372.053 605.794C386.484 597.681 410.174 597.681 424.634 605.794L649.3 730.928Z" fill="url(#paint0_linear_414_71)"/>
<path d="M636.418 724.506V746.732C636.418 751.578 633.147 756.395 626.574 760.085V737.83C633.147 734.281 636.418 729.435 636.418 724.506Z" fill="#5FD9FF"/>
<path d="M159.568 746.676V724.449C159.568 729.323 162.869 734.224 169.529 737.943V760.198C162.869 756.479 159.539 751.578 159.568 746.676Z" fill="#5FD9FF"/>
<path d="M626.603 737.943L626.545 760.17L422.706 874.402L422.765 852.175L626.603 737.943Z" fill="#5FD9FF"/>
<path d="M374.77 852.175L374.712 874.402L169.529 760.17L169.617 737.943L374.77 852.175Z" fill="#5FD9FF"/>
<path d="M422.765 852.175V874.402C409.59 881.783 388.003 881.783 374.741 874.402V852.147C388.003 859.556 409.619 859.556 422.765 852.175Z" fill="#5FD9FF"/>
<path d="M626.457 711.125C639.69 718.477 639.778 730.562 626.457 737.943L422.619 852.175C409.473 859.556 387.857 859.556 374.624 852.175L169.442 737.943C156.209 730.562 156.151 718.505 169.296 711.125L373.134 596.892C386.309 589.512 407.896 589.512 421.158 596.892L626.457 711.125Z" fill="#5FD9FF"/>
<path d="M660.722 691.771V716.139C660.722 721.435 657.1 726.731 649.943 730.759V706.392C657.188 702.363 660.722 697.067 660.722 691.771Z" fill="#5618B8"/>
<path d="M138.244 716.055V691.659C138.244 697.039 141.866 702.392 149.169 706.476V730.844C141.866 726.675 138.244 721.322 138.244 716.055Z" fill="#5618B8"/>
<path d="M649.943 706.364L649.885 730.731L426.562 855.894L426.62 831.526L649.943 706.364Z" fill="#5618B8"/>
<path d="M374.04 831.526L373.952 855.894L149.198 730.731L149.256 706.364L374.04 831.526Z" fill="#5618B8"/>
<path d="M426.62 831.554V855.922C412.19 864.007 388.645 864.007 374.04 855.922V831.554C388.441 839.611 412.219 839.611 426.62 831.554Z" fill="#5618B8"/>
<path d="M649.797 676.982C664.402 685.067 664.402 698.279 649.797 706.392L426.62 831.554C412.219 839.639 388.645 839.639 374.039 831.554L149.256 706.42C134.65 698.335 134.65 685.095 149.081 677.038L372.403 551.876C386.834 543.791 410.378 543.791 424.984 551.876L649.797 676.982Z" fill="url(#paint1_linear_414_71)"/>
<path d="M636.74 669.432V691.659C636.74 696.504 633.439 701.321 626.895 704.983V682.757C633.439 679.094 636.74 674.249 636.74 669.432Z" fill="#5FD9FF"/>
<path d="M159.86 691.49V669.263C159.86 674.136 163.19 679.038 169.851 682.757V705.011C163.19 701.293 159.86 696.335 159.86 691.49Z" fill="#5FD9FF"/>
<path d="M626.895 682.757L626.837 704.983L423.027 819.215L423.086 796.96L626.895 682.757Z" fill="#5FD9FF"/>
<path d="M375.062 796.96L375.004 819.215L169.851 704.983L169.909 682.757L375.062 796.96Z" fill="#5FD9FF"/>
<path d="M423.086 796.989V819.215C409.941 826.596 388.324 826.596 375.091 819.215V796.989C388.441 804.341 409.912 804.341 423.086 796.989Z" fill="#5FD9FF"/>
<path d="M626.778 655.938C640.011 663.291 640.07 675.376 626.778 682.757L422.969 796.989C409.795 804.341 388.207 804.341 374.945 796.989L169.792 682.757C156.559 675.376 156.472 663.319 169.646 655.938L373.455 541.706C386.63 534.325 408.246 534.325 421.479 541.706L626.778 655.938Z" fill="#5FD9FF"/>
<path d="M661.043 636.585V660.953C661.043 666.249 657.45 671.545 650.264 675.573V651.177C657.421 647.177 661.014 641.881 661.043 636.585Z" fill="#5618B8"/>
<path d="M138.565 660.755V636.388C138.565 641.768 142.187 647.121 149.49 651.177V675.573C142.187 671.488 138.536 666.136 138.565 660.755Z" fill="#5618B8"/>
<path d="M650.264 651.177L650.206 675.545L426.883 800.707L426.942 776.34L650.264 651.177Z" fill="#5618B8"/>
<path d="M374.332 776.34L374.273 800.707L149.49 675.545L149.578 651.177L374.332 776.34Z" fill="#5618B8"/>
<path d="M426.942 776.34V800.707C412.54 808.792 388.967 808.792 374.361 800.707V776.34C388.85 784.425 412.511 784.425 426.942 776.34Z" fill="#5618B8"/>
<path d="M650.118 621.795C664.724 629.88 664.724 643.092 650.264 651.177L426.942 776.34C412.511 784.425 388.967 784.425 374.361 776.34L149.548 651.262C134.943 643.205 134.943 629.965 149.402 621.88L372.696 496.746C387.155 488.661 410.817 488.661 425.277 496.746L650.118 621.795Z" fill="url(#paint2_linear_414_71)"/>
<path d="M421.363 494.605V518.972C408.597 511.873 387.974 511.873 375.296 518.972V494.605C387.974 487.506 408.626 487.506 421.363 494.605Z" fill="#CCD3E2"/>
<path d="M609.456 599.315L609.368 623.683L421.304 518.972L421.363 494.605L609.456 599.315Z" fill="#CCD3E2"/>
<path d="M619.037 612.274V636.641C619.037 631.965 615.853 627.261 609.427 623.683V599.315C615.853 602.893 619.213 607.597 619.037 612.274Z" fill="#CCD3E2"/>
<path d="M178.936 636.472V612.105C178.936 607.457 182.09 602.837 188.371 599.315V623.683C182.09 627.204 178.965 631.824 178.936 636.472Z" fill="#CCD3E2"/>
<path d="M628.327 612.302V636.669C628.327 642.613 624.266 648.557 616.175 653.093V628.725C624.266 624.19 628.298 618.246 628.327 612.302Z" fill="#CCD3E2"/>
<path d="M169.646 636.444V612.076C169.646 618.105 173.736 624.133 181.974 628.725V653.093C173.736 648.445 169.646 642.473 169.646 636.444Z" fill="#CCD3E2"/>
<path d="M615.999 595.653C632.357 604.752 632.445 619.598 616.174 628.725L429.22 733.436C412.949 742.535 386.396 742.535 370.008 733.436L182.061 628.725C165.702 619.598 165.615 604.78 181.856 595.653L368.81 490.943C385.081 481.815 411.635 481.815 427.993 490.943L615.999 595.653ZM422.735 729.774L609.689 625.035C622.338 617.936 622.25 606.414 609.689 599.315L421.596 494.605C408.859 487.506 388.207 487.506 375.558 494.605L188.604 599.315C175.955 606.414 176.014 617.936 188.604 625.035L376.756 729.774C389.463 736.844 410.145 736.844 422.793 729.774" fill="white"/>
<path d="M375.325 494.605L375.238 518.972L188.4 623.683L188.459 599.315L375.325 494.605Z" fill="#CCD3E2"/>
<path d="M616.204 628.697L616.116 653.065L429.279 757.803L429.337 733.436L616.204 628.697Z" fill="#CCD3E2"/>
<path d="M370.155 733.436L370.067 757.803L182.003 653.065L182.061 628.697L370.155 733.436Z" fill="#CCD3E2"/>
<path d="M429.337 733.436V757.803C413.066 766.931 386.513 766.931 370.155 757.803V733.436C386.513 742.535 413.066 742.535 429.337 733.436Z" fill="#CCD3E2"/>
<path d="M560.935 628.725V633.599C560.935 638.895 557.342 644.163 550.156 648.191V643.318C557.313 639.148 560.789 633.881 560.935 628.725Z" fill="#CCD3E2"/>
<path d="M237.066 633.261V628.387C237.066 633.74 240.718 639.12 247.992 643.177V648.051C240.689 643.994 237.037 638.613 237.066 633.261Z" fill="#CCD3E2"/>
<path d="M550.156 643.177L550.127 648.051L425.802 717.717V712.843L550.156 643.177Z" fill="#CCD3E2"/>
<path d="M373.192 712.871L373.163 717.745L247.991 648.051L248.021 643.177L373.192 712.871Z" fill="#CCD3E2"/>
<path d="M425.803 712.871V717.745C411.372 725.83 387.827 725.83 373.222 717.745V712.871C387.681 720.956 411.372 720.956 425.803 712.871Z" fill="#CCD3E2"/>
<path d="M549.981 613.795C564.587 621.852 564.587 635.092 550.156 643.177L425.803 712.871C411.372 720.956 387.681 720.956 373.222 712.871L248.021 643.177C233.415 635.092 233.415 621.88 247.875 613.795L372.199 544.213C386.63 536.128 410.32 536.128 424.78 544.213L549.981 613.795Z" fill="white"/>
<path d="M491.967 530.325C500.168 532.536 508.663 533.571 517.176 533.396L514.109 539.03C505.595 539.181 497.103 538.137 488.9 535.931L491.967 530.325Z" fill="white"/>
<path d="M517.176 533.396C533.476 532.917 544.752 527.029 549.777 517.958L546.68 523.592C541.656 532.663 530.409 538.551 514.109 539.058C515.015 537.311 516.271 535.086 517.176 533.396Z" fill="white"/>
<path d="M427.994 487.28C440.671 507 466.29 523.705 491.967 530.325L488.9 535.959C463.223 529.339 437.604 512.747 424.926 492.914C416.513 479.787 415.403 467.561 420.34 458.687L423.437 453.053C418.471 462.039 419.61 474.125 427.994 487.28Z" fill="white"/>
<path d="M420.34 458.631L423.437 452.996C428.461 443.897 439.707 438.038 455.978 437.531L452.911 443.165C436.611 443.672 425.364 449.56 420.34 458.631Z" fill="#E8EFF9"/>
<path d="M410.087 449.109L413.183 443.475C419.814 431.446 434.741 423.755 456.27 423.023L453.203 428.657C431.645 429.305 416.747 437.165 410.087 449.109Z" fill="url(#paint3_linear_414_71)"/>
<path d="M452.911 443.193C485.277 442.207 525.21 462.913 542.123 489.309C559.037 515.705 546.476 538.016 514.109 539.002C481.743 539.988 441.81 519.282 424.926 492.858C408.042 466.434 420.574 444.151 452.911 443.193Z" fill="#E8EFF9"/>
<path d="M549.777 517.958L546.68 523.592C551.646 514.606 550.507 502.521 542.123 489.365C525.21 462.913 485.277 442.264 452.911 443.25L455.978 437.615C488.374 436.658 528.306 457.335 545.19 483.759C553.603 496.887 554.713 508.972 549.777 517.958Z" fill="#E8EFF9"/>
<path d="M580.42 529.424L577.323 535.058C583.896 523.198 582.406 507.169 571.276 489.788C548.929 454.772 496.057 427.418 453.203 428.714L456.27 423.08C499.124 421.784 551.997 449.138 574.373 484.154C585.473 501.535 587.08 517.564 580.42 529.424Z" fill="url(#paint4_linear_414_71)"/>
<path d="M453.203 428.713C496.057 427.418 548.929 454.771 571.276 489.787C593.623 524.804 577.119 554.242 534.207 555.538C491.295 556.834 438.51 529.48 416.134 494.464C393.758 459.448 410.35 429.953 453.203 428.713ZM514.051 539.002C546.417 538.016 558.949 515.761 542.065 489.308C525.18 462.856 485.219 442.207 452.853 443.193C420.486 444.179 407.954 466.406 424.868 492.858C441.781 519.31 481.684 539.959 514.051 539.002Z" fill="white"/>
<path d="M421.684 458.8L422.706 456.941C417.156 466.998 418.412 480.548 427.789 495.225C446.66 524.776 491.441 547.904 527.576 546.833L526.524 548.693C490.419 549.791 445.637 526.635 426.767 497.084C417.39 482.407 416.134 468.857 421.684 458.8Z" fill="#CAAEFF"/>
<path d="M563.973 529.508L562.951 531.368C557.342 541.537 544.723 548.129 526.524 548.693L527.576 546.833C545.775 546.27 558.365 539.678 563.973 529.508Z" fill="#CAAEFF"/>
<path d="M416.952 456.377L417.974 454.518C423.962 443.672 437.4 436.629 456.796 436.038L455.774 437.925C436.377 438.489 422.94 445.616 416.952 456.377Z" fill="#CAAEFF"/>
<path d="M568.706 531.931L567.683 533.79C573.526 523.085 572.27 508.634 562.279 492.999C542.123 461.448 494.362 436.658 455.774 437.925L456.796 436.038C495.385 434.883 543.146 459.589 563.302 491.112C573.292 506.774 574.636 521.226 568.706 531.931Z" fill="#CAAEFF"/>
<path d="M455.774 437.925C494.362 436.742 542.123 461.448 562.279 492.999C582.435 524.55 567.42 551.115 528.832 552.157C490.243 553.2 442.512 528.635 422.385 497.112C402.258 465.589 417.214 439.08 455.774 437.925ZM526.524 548.692C562.688 547.594 576.768 522.663 557.868 493.112C538.968 463.561 494.216 440.404 458.081 441.503C421.947 442.602 407.896 467.533 426.767 497.084C445.637 526.635 490.419 549.791 526.524 548.692Z" fill="#5618B8"/>
<path d="M452.21 495.055L453.232 493.196L465.004 490.097L463.953 491.957L452.21 495.055Z" fill="#CAAEFF"/>
<path d="M493.515 493.816L494.537 491.957L501.957 511.93L500.935 513.789L493.515 493.816Z" fill="#CAAEFF"/>
<path d="M541.948 512.549L542.97 510.69L548.754 526.353L547.732 528.212L541.948 512.549Z" fill="#CAAEFF"/>
<path d="M500.935 513.789L501.957 511.93L542.97 510.69L541.948 512.549L500.935 513.789Z" fill="#CAAEFF"/>
<path d="M501.986 482.097L503.038 480.238L508.208 488.323L507.157 490.182L501.986 482.097Z" fill="#CAAEFF"/>
<path d="M490.243 485.196L491.266 483.337L503.038 480.238L501.986 482.097L490.243 485.196Z" fill="#CAAEFF"/>
<path d="M478.091 453.448L490.243 485.196L501.986 482.097L507.157 490.182L493.515 493.816L500.935 513.789L541.948 512.55L547.732 528.212L478.646 530.297L467.225 500.577L457.38 503.169L452.21 495.056L463.953 491.957L449.727 454.293L478.091 453.448Z" fill="#5618B8"/>
<path d="M478.091 453.447L479.114 451.588L491.266 483.336L490.243 485.196L478.091 453.447Z" fill="#CAAEFF"/>
<path d="M449.727 454.293L450.749 452.433L479.114 451.588L478.091 453.447L449.727 454.293Z" fill="#CAAEFF"/>
<path d="M478.778 617.59C478.778 617.337 478.778 617.111 478.545 616.886C478.545 614.492 478.545 612.125 478.545 609.731C478.605 609.971 478.683 610.206 478.778 610.435C478.778 612.773 478.778 615.139 478.778 617.59Z" fill="white"/>
<path d="M478.778 617.59C478.764 617.393 478.764 617.196 478.778 616.999C478.778 614.801 478.778 612.632 478.778 610.435C479.606 612.999 480.039 615.666 480.064 618.351V625.506C480.054 622.82 479.62 620.151 478.778 617.59Z" fill="white"/>
<path d="M342.01 593.532C326.382 602.294 318.641 613.731 318.641 625.224V618.069C318.641 606.604 326.499 595.166 342.01 586.405C373.442 568.799 424.591 568.77 456.227 586.405C468.116 593.025 475.565 601.167 478.574 609.702C478.574 612.097 478.574 614.463 478.574 616.858C475.653 608.407 468.116 600.181 456.256 593.561C424.591 575.926 373.442 575.926 342.01 593.532Z" fill="white"/>
<path d="M480.064 625.647V618.52C480.093 620.661 480.064 623.506 480.064 625.647Z" fill="white"/>
<path d="M480.093 618.52V625.647C480.093 637.141 472.235 648.578 456.724 657.339C425.263 674.946 374.142 674.946 342.477 657.339C326.557 648.465 318.611 636.831 318.64 625.224V618.069C318.64 629.704 326.557 641.338 342.477 650.184C374.142 667.819 425.263 667.819 456.694 650.184C472.235 641.451 480.064 629.985 480.093 618.52Z" fill="#E8EFF9"/>
<path d="M456.227 586.377C487.892 604.012 488.039 632.577 456.607 650.212C425.175 667.847 374.055 667.818 342.389 650.212C310.724 632.605 310.578 604.04 342.01 586.433C373.441 568.827 424.591 568.77 456.227 586.377Z" fill="url(#paint5_linear_414_71)"/>
<path d="M507.844 621.534V628.661C507.844 643.845 497.444 659.001 476.763 670.608C435.165 693.933 367.482 693.933 325.593 670.608C304.502 658.86 293.986 643.451 294.015 628.07V620.943C294.015 636.324 304.502 651.733 325.564 663.452C367.482 686.806 435.165 686.777 476.763 663.452C497.444 651.874 507.785 636.718 507.844 621.534Z" fill="url(#paint6_linear_414_71)"/>
<path d="M476.266 578.996C518.185 602.35 518.389 640.155 476.763 663.508C435.136 686.862 367.482 686.862 325.564 663.508C283.645 640.155 283.47 602.378 325.096 578.996C366.723 555.615 434.377 555.615 476.266 578.996ZM342.389 650.184C374.055 667.819 425.175 667.819 456.607 650.184C488.038 632.549 487.892 603.984 456.227 586.349C424.562 568.714 373.441 568.771 342.01 586.349C310.578 603.928 310.753 632.521 342.389 650.127" fill="white"/>
<path d="M489.645 621.027V623.422C489.645 610.407 480.882 597.392 463.033 587.476C427.687 567.756 370.374 567.756 335.233 587.476C317.706 597.251 309.088 610.012 308.942 622.914V620.548C308.942 607.702 317.706 594.885 335.233 585.109C370.286 565.39 427.658 565.39 463.004 585.109C480.794 595.054 489.674 608.04 489.645 621.027Z" fill="#CAAEFF"/>
<path d="M495.692 621.055V623.45C495.692 637.141 486.315 650.832 467.707 661.255C430.229 682.242 369.089 682.242 331.377 661.255C312.389 650.691 302.924 636.775 302.954 622.915V620.407C302.954 634.296 312.389 648.184 331.377 658.748C369.089 679.763 430.258 679.763 467.707 658.748C486.198 648.578 495.663 634.746 495.692 621.055Z" fill="#CAAEFF"/>
<path d="M467.269 582.715C504.981 603.702 505.244 637.873 467.707 658.776C430.17 679.678 369.089 679.763 331.377 658.776C293.664 637.789 293.402 603.618 330.938 582.715C368.475 561.812 429.557 561.7 467.269 582.715ZM335.641 656.466C370.987 676.185 428.33 676.185 463.413 656.466C498.496 636.746 498.467 604.744 463.004 585.081C427.541 565.418 370.345 565.362 335.233 585.081C300.12 604.801 300.179 636.774 335.641 656.438" fill="#5618B8"/>
<path d="M301.303 438.489C309.218 441.497 317.541 443.394 326.016 444.123L322.335 449.334C313.856 448.633 305.529 446.735 297.622 443.7L301.303 438.489Z" fill="white"/>
<path d="M242.383 389.274C252.782 410.262 276.444 429.305 301.215 438.517L297.534 443.728C272.763 434.545 249.131 415.558 238.702 394.514C231.808 380.598 231.984 368.484 237.884 360.061L241.565 354.85C235.752 363.217 235.547 375.358 242.383 389.274Z" fill="white"/>
<path d="M326.016 444.095C342.228 445.25 354.059 440.545 360.018 432.038L356.308 437.165C350.466 445.616 338.489 450.377 322.277 449.222L326.016 444.095Z" fill="white"/>
<path d="M237.972 360.033L241.653 354.822C247.641 346.371 259.442 341.61 275.684 342.765L272.004 348.005C255.791 346.821 243.96 351.526 237.972 360.033Z" fill="#E8EFF9"/>
<path d="M220.445 346.511L224.126 341.272C232.042 330.003 247.67 323.806 269.141 325.327L265.489 330.567C244.019 329.017 228.361 335.243 220.445 346.511Z" fill="url(#paint7_linear_414_71)"/>
<path d="M360.018 432.038L356.308 437.165C362.15 428.713 362.384 416.656 355.49 402.768C341.586 374.767 304.195 350.202 271.945 347.92L275.626 342.68C307.759 344.99 345.266 369.527 359.171 397.528C366.123 411.501 365.919 423.614 360.018 432.038Z" fill="#E8EFF9"/>
<path d="M265.489 330.567C308.138 333.609 357.652 366.118 376.055 403.163C394.459 440.207 374.77 467.73 332.092 464.687C289.414 461.645 239.929 429.136 221.526 392.091C203.123 355.047 222.811 327.524 265.489 330.567ZM322.335 449.306C354.468 451.616 369.453 430.826 355.549 402.853C341.644 374.879 304.253 350.286 272.004 348.004C239.754 345.723 224.885 366.484 238.79 394.486C252.695 422.488 290.086 446.996 322.335 449.306Z" fill="white"/>
<path d="M272.004 348.004C304.136 350.286 341.644 374.851 355.549 402.853C369.453 430.854 354.555 451.616 322.335 449.306C290.115 446.996 252.695 422.46 238.79 394.486C224.885 366.513 239.783 345.694 272.004 348.004Z" fill="#E8EFF9"/>
<path d="M380.787 443.503L377.107 448.743C384.935 437.475 385.198 421.558 376.055 403.163C357.652 366.118 308.138 333.609 265.489 330.567L269.141 325.327C311.819 328.398 361.333 360.879 379.707 397.923C388.85 416.318 388.587 432.376 380.787 443.503Z" fill="url(#paint8_linear_414_71)"/>
<path d="M230.231 358.287L231.458 356.54C224.856 365.949 224.622 379.528 232.334 395.05C247.846 426.319 289.764 453.842 325.811 456.405L324.584 458.152C288.567 455.56 246.677 428.037 231.107 396.796C223.396 381.161 223.629 367.583 230.231 358.287Z" fill="#CAAEFF"/>
<path d="M363.816 442.799L362.589 444.545C355.899 454.067 342.666 459.335 324.614 458.039L325.84 456.293C343.893 457.588 357.126 452.321 363.816 442.799Z" fill="#CAAEFF"/>
<path d="M225.791 355.273L227.018 353.526C234.145 343.356 248.254 337.75 267.593 339.131L266.366 340.877C247.028 339.497 232.918 345.103 225.791 355.273Z" fill="#CAAEFF"/>
<path d="M368.227 445.616L367.029 447.363C374.069 437.334 374.303 422.854 366.094 406.29C349.531 372.936 304.75 343.582 266.366 340.821L267.593 339.074C306.006 341.892 350.758 371.189 367.321 404.543C375.529 421.164 375.296 435.644 368.227 445.616Z" fill="#CAAEFF"/>
<path d="M266.366 340.877C304.779 343.694 349.531 372.992 366.094 406.346C382.657 439.7 364.867 464.575 326.454 461.842C288.041 459.11 243.289 429.699 226.726 396.374C210.163 363.048 227.952 338.117 266.366 340.877ZM324.555 458.039C360.573 460.603 377.136 437.277 361.712 406.036C346.289 374.795 304.282 347.272 268.235 344.68C232.188 342.089 215.654 365.414 231.078 396.683C246.502 427.953 288.508 455.447 324.555 458.039Z" fill="#5618B8"/>
<path d="M299.141 429.08L297.914 430.826C299.959 428.009 300.047 423.671 297.622 418.797C296.522 416.761 295.158 414.867 293.562 413.163L294.788 411.417C296.384 413.121 297.749 415.014 298.849 417.051C301.273 421.924 301.186 426.15 299.141 429.08Z" fill="#CAAEFF"/>
<path d="M256.521 403.839L257.748 402.092C259.851 399.134 263.941 397.472 269.637 397.866C276.274 398.645 282.576 401.115 287.894 405.022L286.668 406.768C281.349 402.861 275.047 400.391 268.41 399.613C262.831 399.219 258.624 400.853 256.521 403.839Z" fill="#CAAEFF"/>
<path d="M294.964 400.768L293.737 402.515C292.948 403.641 290.816 404.458 286.726 406.768L287.953 405.022C291.867 402.712 294.117 401.895 294.964 400.768Z" fill="#CAAEFF"/>
<path d="M297.359 392.092L298.586 390.345C305.392 404.036 300.193 399.106 317.34 407.05L316.113 408.797C298.966 400.937 304.165 405.839 297.359 392.092Z" fill="#CAAEFF"/>
<path d="M316.376 408.487L317.573 406.74C319.005 404.987 320.9 403.638 323.059 402.835C325.217 402.032 327.561 401.805 329.842 402.177C335.887 402.97 341.654 405.119 346.681 408.451C351.709 411.782 355.856 416.204 358.791 421.361C361.245 426.291 361.186 430.545 359.112 433.474L357.915 435.221C359.959 432.404 360.018 428.009 357.564 423.079C354.631 417.923 350.484 413.504 345.455 410.177C340.427 406.849 334.659 404.707 328.615 403.923C326.338 403.551 323.999 403.778 321.844 404.581C319.69 405.384 317.801 406.734 316.376 408.487Z" fill="#CAAEFF"/>
<path d="M263.941 361.104L265.168 359.357C267.271 356.343 271.448 354.709 277.057 355.104L275.859 356.85C270.221 356.484 266.073 358.118 263.941 361.104Z" fill="#CAAEFF"/>
<path d="M306.648 386.457L305.421 388.204C307.466 385.387 307.525 381.049 305.129 376.203C302.189 370.999 298.006 366.544 292.927 363.208C287.847 359.872 282.016 357.751 275.918 357.019L277.115 355.272C283.213 356.008 289.041 358.132 294.12 361.467C299.199 364.803 303.383 369.255 306.327 374.457C308.693 379.161 308.635 383.387 306.648 386.457Z" fill="#CAAEFF"/>
<path d="M275.859 356.878C281.958 357.61 287.789 359.731 292.868 363.067C297.948 366.403 302.131 370.858 305.071 376.063C309.307 384.514 305.889 391.275 297.359 392.176C304.165 405.839 298.966 400.937 316.113 408.881C318.216 405.557 322.423 403.473 328.615 403.923C334.659 404.707 340.427 406.849 345.455 410.176C350.484 413.504 354.631 417.923 357.564 423.079C362.472 432.939 357.33 440.179 346.23 439.362C340.129 438.637 334.296 436.518 329.215 433.182C324.134 429.845 319.953 425.387 317.018 420.178C316.052 418.429 315.447 416.515 315.237 414.544C307.291 410.825 304.311 409.05 302.062 408.91C299.813 408.769 298.381 410.234 293.562 413.022C295.158 414.727 296.522 416.62 297.622 418.657C302.53 428.516 297.125 435.728 285.937 434.911C279.839 434.18 274.008 432.058 268.928 428.722C263.849 425.386 259.666 420.931 256.726 415.727C251.935 406.092 256.989 398.655 268.41 399.472C275.047 400.251 281.349 402.721 286.668 406.628C295.957 401.247 295.84 404.036 289.589 391.697C284.234 390.454 279.204 388.152 274.82 384.937C270.435 381.722 266.79 377.664 264.116 373.02C259.326 363.273 264.73 356.09 275.859 356.878Z" fill="#5618B8"/>
<path d="M543.788 327.13C549.864 312.876 548.93 300.762 542.561 292.706L546.534 297.72C552.902 305.777 553.837 317.89 547.761 332.145C535.551 360.822 499.65 387.387 467.604 391.472L463.632 386.458C495.677 382.373 531.578 355.808 543.788 327.13Z" fill="white"/>
<path d="M428.928 376.288C435.413 384.486 447.507 388.514 463.632 386.457L467.604 391.472C451.48 393.528 439.386 389.5 432.93 381.33L428.928 376.288Z" fill="white"/>
<path d="M542.561 292.706L546.534 297.72C540.049 289.551 527.985 285.494 511.86 287.55L507.887 282.536C524.012 280.48 536.076 284.508 542.561 292.706Z" fill="#E8EFF9"/>
<path d="M574.782 278.451L578.755 283.466C570.196 272.648 554.217 267.324 532.863 270.028L528.89 265.014C550.244 262.281 566.223 267.634 574.782 278.451Z" fill="url(#paint9_linear_414_71)"/>
<path d="M511.86 287.55C543.993 283.465 559.972 303.438 547.761 332.144C535.551 360.85 499.65 387.387 467.604 391.472C435.559 395.557 419.464 375.612 431.674 346.906C443.885 318.2 479.815 291.635 511.86 287.55Z" fill="#E8EFF9"/>
<path d="M432.93 381.33L428.957 376.288C422.56 368.231 421.654 356.146 427.701 341.891C439.941 313.186 475.842 286.621 507.887 282.536L511.86 287.55C479.727 291.635 443.914 318.228 431.674 346.906C425.627 361.104 426.416 373.245 432.93 381.33Z" fill="#E8EFF9"/>
<path d="M428.402 394.148L424.43 389.275C415.987 378.57 414.761 362.569 422.794 343.694C438.977 305.72 486.475 270.451 528.89 265.155L532.863 270.169C490.448 275.55 442.95 310.735 426.766 348.709C418.733 367.442 419.96 383.471 428.402 394.148Z" fill="url(#paint10_linear_414_71)"/>
<path d="M532.863 270.028C575.278 264.619 596.574 291.043 580.39 329.186C564.207 367.33 516.709 402.43 474.294 407.726C431.879 413.022 410.613 386.711 426.767 348.709C442.921 310.707 490.448 275.409 532.863 270.028ZM467.604 391.472C499.737 387.387 535.551 360.822 547.761 332.144C559.972 303.467 543.905 283.465 511.86 287.55C479.815 291.635 443.943 318.228 431.674 347.019C419.405 375.809 435.559 395.669 467.604 391.585" fill="white"/>
<path d="M564.441 294.198L565.784 295.889C572.912 304.903 573.964 318.425 567.157 334.398C553.515 366.428 513.32 396.205 477.507 400.768L476.192 399.106C512.006 394.542 552.143 364.766 565.843 332.708C572.62 316.791 571.597 303.241 564.441 294.198Z" fill="#CAAEFF"/>
<path d="M438.743 389.275L437.429 387.584C444.644 396.74 458.169 401.275 476.193 398.994L477.507 400.656C459.483 403.05 445.988 398.543 438.743 389.275Z" fill="#CAAEFF"/>
<path d="M568.706 291.072L570.02 292.762C562.308 282.987 547.878 278.169 528.686 280.62L527.342 278.93C546.563 276.592 560.965 281.325 568.706 291.072Z" fill="#CAAEFF"/>
<path d="M434.478 392.514L433.164 390.824C425.54 381.19 424.4 366.766 431.674 349.779C446.28 315.58 489.162 283.804 527.342 278.93L528.686 280.62C490.477 285.466 447.565 317.242 432.989 351.47C425.744 368.428 426.854 382.88 434.478 392.514Z" fill="#CAAEFF"/>
<path d="M528.657 280.62C566.836 275.747 586.057 299.607 571.481 333.835C556.904 368.062 514.051 399.811 475.871 404.656C437.692 409.501 418.441 385.641 432.989 351.47C447.536 317.299 490.477 285.466 528.657 280.62ZM477.478 400.768C513.291 396.205 553.428 366.428 567.128 334.398C580.828 302.368 562.776 279.944 526.991 284.508C491.207 289.072 451.041 318.848 437.312 350.906C423.582 382.964 441.694 405.332 477.478 400.768Z" fill="#5618B8"/>
<path d="M516.914 353.554L515.599 351.892L537.186 323.468L538.501 325.13L516.914 353.554Z" fill="#CAAEFF"/>
<path d="M560.322 307.58L561.637 309.27C560.322 307.608 557.635 306.904 553.603 307.411L552.289 305.749C556.32 305.157 559.007 305.861 560.322 307.58Z" fill="#CAAEFF"/>
<path d="M462.989 360.428L461.645 358.766L515.599 351.892L516.914 353.554L462.989 360.428Z" fill="#CAAEFF"/>
<path d="M449.552 378.232L448.237 376.541L461.645 358.766L462.989 360.428L449.552 378.232Z" fill="#CAAEFF"/>
<path d="M484.547 332.004L483.233 330.313L496.553 312.763L497.868 314.425L484.547 332.004Z" fill="#CAAEFF"/>
<path d="M497.867 314.425L496.553 312.763L552.289 305.664L553.632 307.326L497.867 314.425Z" fill="#CAAEFF"/>
<path d="M553.603 307.326C558.482 306.706 561.403 307.861 562.367 310.368C563.331 312.876 562.104 316.707 558.803 321.045L534.499 353.075C530.717 357.798 526.11 361.849 520.886 365.048C516.245 368.118 510.976 370.193 505.433 371.133L449.668 378.232L463.077 360.428L516.972 353.582L538.559 325.13L484.606 332.004L497.926 314.425L553.603 307.326Z" fill="#5618B8"/>
<path fill-rule="evenodd" clip-rule="evenodd" d="M469.62 338.652L506.514 332.567L496.086 350.991L458.286 356.258L469.62 338.652Z" fill="#5618B8"/>
<path d="M334.458 170.783C347.399 192.361 365.276 211.236 385.082 222.251L377.078 226.73C357.272 215.715 339.395 196.841 326.454 175.262L334.458 170.783Z" fill="white"/>
<path d="M313.63 102.948C313.63 124.893 321.546 149.204 334.458 170.783L326.454 175.177C313.542 153.599 305.568 129.287 305.626 107.371C305.684 85.4538 313.688 70.2416 326.542 63.0299L334.546 58.5508C321.692 65.847 313.718 81.1718 313.63 102.948Z" fill="white"/>
<path d="M385.082 222.25C404.975 233.322 423.057 234.364 436.056 227.068L428.052 231.519C415.024 238.815 396.971 237.773 377.078 226.701C379.473 225.377 382.599 223.575 385.082 222.25Z" fill="white"/>
<path d="M326.542 63.1144L334.545 58.6353C347.545 51.2264 365.627 52.3532 385.52 63.4524L377.516 67.9316C357.623 56.8605 339.57 55.8182 326.542 63.1144Z" fill="#E8EFF9"/>
<path d="M326.863 61.2551L334.867 56.8605C352.102 47.1979 375.967 48.5501 402.346 63.227L394.283 67.6217C367.993 52.9447 344.098 51.5925 326.863 61.2551Z" fill="url(#paint11_linear_414_71)"/>
<path d="M377.516 67.9316C417.098 89.9611 449.084 143.373 448.967 187.234C448.851 231.096 416.63 248.759 377.078 226.673C337.525 204.588 305.509 151.289 305.626 107.568C305.743 63.8468 337.963 45.9021 377.516 67.9316Z" fill="#E8EFF9"/>
<path d="M436.056 227.068L428.052 231.519C440.934 224.307 448.88 208.982 448.967 187.206C448.967 143.344 417.098 89.9328 377.516 67.9034L385.52 63.4524C425.102 85.4819 457.088 138.893 456.971 182.755C456.884 204.531 448.938 219.856 436.056 227.068Z" fill="#E8EFF9"/>
<path d="M469.211 279.691L461.207 284.198C478.208 274.648 488.783 254.365 488.87 225.518C489.046 167.487 446.718 96.7784 394.342 67.7626L402.346 63.2834C454.722 92.4401 497.05 163.148 496.874 221.18C496.787 249.886 486.212 270.169 469.211 279.691Z" fill="url(#paint12_linear_414_71)"/>
<path d="M394.283 67.6217C446.66 96.7784 488.987 167.487 488.812 225.518C488.637 283.55 446.017 306.988 393.67 277.831C341.323 248.675 299.024 177.994 299.17 119.906C299.316 61.8185 341.965 38.465 394.283 67.6217ZM377.019 226.73C416.572 248.759 448.763 231.096 448.909 187.291C449.055 143.485 417.039 90.0174 377.457 67.9879C337.876 45.9585 305.714 63.6215 305.568 107.427C305.422 151.232 337.437 204.672 377.019 226.702" fill="white"/>
<path d="M334.195 81.3129L336.853 79.8198C322.452 87.8766 313.484 105.173 313.484 129.372C313.338 178.333 349.181 238.195 393.378 262.817L390.72 264.31C346.522 239.688 310.68 179.798 310.826 130.865C310.855 106.526 319.794 89.3979 334.195 81.3129Z" fill="#CAAEFF"/>
<path d="M450.37 268.141L447.682 269.662C433.076 277.831 412.949 276.676 390.69 264.309L393.348 262.816C415.608 275.183 435.793 276.31 450.37 268.141Z" fill="#CAAEFF"/>
<path d="M330.398 75.0025L333.056 73.5095C348.626 64.8048 370.155 66.0161 393.904 79.1436L391.245 80.6367C367.496 67.5091 345.967 66.2978 330.398 75.0025Z" fill="#CAAEFF"/>
<path d="M454.196 274.451L451.509 275.944C466.874 267.493 476.426 249.069 476.485 223.124C476.631 170.839 438.51 106.976 391.245 80.7211L393.904 79.228C441.051 105.483 479.318 169.374 479.143 221.631C478.997 247.576 469.532 265.859 454.196 274.451Z" fill="#CAAEFF"/>
<path d="M391.362 80.7213C438.51 106.976 476.748 170.867 476.602 223.124C476.456 275.381 437.955 296.509 390.778 270.254C343.601 243.999 305.392 180.107 305.539 127.879C305.685 75.6506 344.069 54.4662 391.362 80.7213ZM390.807 264.31C435.004 288.931 471.081 269.07 471.227 220.11C471.373 171.149 435.413 111.258 391.362 86.6653C347.311 62.0723 311.089 81.8763 310.943 130.865C310.797 179.854 346.639 239.688 390.836 264.31" fill="#5618B8"/>
<path d="M340.096 187.572L342.754 186.051L358.265 194.7L355.578 196.193L340.096 187.572Z" fill="#CAAEFF"/>
<path d="M383.592 231.772L386.25 230.279L386.221 245.125L383.533 246.618L383.592 231.772Z" fill="#CAAEFF"/>
<path d="M407.341 243.547L410.028 242.054L409.97 258.365L407.312 259.858L407.341 243.547Z" fill="#5618B8"/>
<path d="M377.574 208.278L380.262 206.785L395.101 215.039L392.414 216.532L377.574 208.278Z" fill="#CAAEFF"/>
<path d="M377.662 178.304L380.349 176.811L380.262 206.785L377.574 208.278L377.662 178.304Z" fill="#5618B8"/>
<path d="M408.889 217.94L406.231 219.433C405.937 219.608 405.623 219.75 405.296 219.856C402.375 220.786 398.227 219.687 392.414 216.532L395.072 215.039C400.914 218.194 405.218 219.302 407.983 218.363C408.301 218.257 408.605 218.115 408.889 217.94Z" fill="#CAAEFF"/>
<path d="M377.72 158.979L380.408 157.486L393.144 164.613L390.486 166.106L377.72 158.979Z" fill="#CAAEFF"/>
<path d="M377.808 133.428L380.466 131.935L380.408 157.486L377.72 158.979L377.808 133.428Z" fill="#CAAEFF"/>
<path d="M390.486 166.106L393.144 164.613L395.218 165.712C400.126 168.219 403.748 169.205 406.114 168.754L403.456 170.276C401.06 170.698 397.438 169.712 392.56 167.205L390.486 166.106Z" fill="#CAAEFF"/>
<path d="M414.001 187.572L416.659 186.079V186.896L414.001 188.389V187.572Z" fill="#5618B8"/>
<path d="M407.312 168.332L404.653 169.825C404.274 170.021 403.872 170.172 403.456 170.276L406.114 168.754C406.534 168.678 406.939 168.535 407.312 168.332Z" fill="#5618B8"/>
<path d="M340.388 92.5809L343.046 91.0879L371.644 107.004L368.957 108.497L340.388 92.5809Z" fill="#CAAEFF"/>
<path d="M427.643 241.773L424.955 243.266C429.951 240.449 432.492 234.589 432.521 225.659C432.635 218.693 431.159 211.788 428.198 205.433L430.885 203.94C433.819 210.303 435.294 217.203 435.209 224.166C435.179 233.096 432.638 238.984 427.643 241.773Z" fill="#CAAEFF"/>
<path d="M414.001 188.39L416.659 186.896C422.645 191.441 427.505 197.215 430.885 203.799L428.198 205.292C424.829 198.709 419.978 192.935 414.001 188.39Z" fill="#CAAEFF"/>
<path d="M383.913 116.836L386.601 115.343L390.807 117.681L388.12 119.174L383.913 116.836Z" fill="#CAAEFF"/>
<path d="M388.12 119.174L390.807 117.681C392.355 118.554 393.874 119.427 395.364 120.329L392.706 121.85C391.362 120.949 389.697 120.075 388.12 119.174Z" fill="#CAAEFF"/>
<path d="M369.015 93.6796L371.673 92.1865L386.63 100.497L383.971 101.99L369.015 93.6796Z" fill="#CAAEFF"/>
<path d="M383.971 101.99L386.63 100.497L386.601 115.343L383.913 116.836L383.971 101.99Z" fill="#CAAEFF"/>
<path d="M426.416 186.051L423.758 187.544C424.447 187.15 425.084 186.677 425.657 186.136C428.578 183.319 430.067 178.53 430.067 171.684C430.118 161.642 426.638 151.881 420.194 143.992C416.524 139.521 412.328 135.475 407.691 131.935L410.379 130.442C415 133.989 419.185 138.035 422.852 142.499C429.305 150.385 432.795 160.146 432.755 170.191C432.755 177.009 431.265 181.882 428.315 184.643C427.743 185.184 427.105 185.657 426.416 186.051Z" fill="#CAAEFF"/>
<path d="M407.721 115.23L410.408 113.737L410.35 130.442L407.691 131.935L407.721 115.23Z" fill="#CAAEFF"/>
<path d="M392.735 106.892L395.423 105.399L410.408 113.737L407.721 115.23L392.735 106.892Z" fill="#CAAEFF"/>
<path d="M428.198 205.433C431.159 211.788 432.635 218.693 432.521 225.659C432.521 236.111 429.016 242.393 422.18 244.449C417.254 245.617 412.076 245.303 407.341 243.548V259.858L392.355 251.407V236.533L383.592 231.66V246.534L368.636 238.083V223.208L340.037 207.292V187.347L355.52 195.967L355.753 120.977L340.242 112.357V92.3838L368.84 108.3V93.4543L383.796 101.905V116.723L388.003 119.061C389.58 119.963 391.099 120.836 392.589 121.738V106.892L407.575 115.343V132.048C412.211 135.587 416.407 139.633 420.077 144.105C426.521 151.993 430.002 161.755 429.951 171.797C429.951 178.642 428.461 183.488 425.54 186.248C423.991 187.633 422.034 188.518 419.94 188.78C417.846 189.043 415.719 188.67 413.855 187.713V188.502C419.889 193.04 424.79 198.826 428.198 205.433ZM407.429 218.476C409.138 216.15 409.935 213.315 409.678 210.475C409.701 207.216 408.941 203.995 407.458 201.066C404.059 194.925 398.856 189.888 392.501 186.587L391.362 185.882L377.75 178.304V208.278L392.589 216.532C398.431 219.687 402.667 220.786 405.471 219.856C406.307 219.607 407.048 219.127 407.604 218.476M377.808 133.457V159.007L390.573 166.106L392.647 167.205C397.526 169.712 401.148 170.698 403.543 170.276C405.939 169.853 407.575 167.036 407.575 162.36C407.609 158.006 406.058 153.779 403.193 150.415C400.202 147.073 396.67 144.219 392.735 141.964C391.713 141.316 390.603 140.668 389.434 140.02L377.896 133.597" fill="#5618B8"/>
<path style="mix-blend-mode:hard-light" d="M169.5 610.471V39.113H627.1L626.837 610.696L614.743 627.091L439.474 726.59C427.563 733.964 413.715 737.903 399.561 737.943C385.407 737.983 371.535 734.122 359.58 726.816L181.652 627.091L169.5 610.471Z" fill="url(#paint13_linear_414_71)"/>
<defs>
<linearGradient id="paint0_linear_414_71" x1="137.835" y1="745.634" x2="660.226" y2="745.634" gradientUnits="userSpaceOnUse">
<stop stop-color="#5618B8"/>
<stop offset="1" stop-color="#C7D7FF"/>
</linearGradient>
<linearGradient id="paint1_linear_414_71" x1="138.331" y1="691.687" x2="660.722" y2="691.687" gradientUnits="userSpaceOnUse">
<stop stop-color="#5618B8"/>
<stop offset="1" stop-color="#C7D7FF"/>
</linearGradient>
<linearGradient id="paint2_linear_414_71" x1="138.623" y1="636.5" x2="661.043" y2="636.5" gradientUnits="userSpaceOnUse">
<stop stop-color="#5618B8"/>
<stop offset="1" stop-color="#C7D7FF"/>
</linearGradient>
<linearGradient id="paint3_linear_414_71" x1="410.99" y1="426.519" x2="588.069" y2="507.986" gradientUnits="userSpaceOnUse">
<stop stop-color="#5618B8"/>
<stop offset="1" stop-color="#C7D7FF"/>
</linearGradient>
<linearGradient id="paint4_linear_414_71" x1="410.578" y1="427.429" x2="587.617" y2="508.886" gradientUnits="userSpaceOnUse">
<stop stop-color="#5618B8"/>
<stop offset="1" stop-color="#C7D7FF"/>
</linearGradient>
<linearGradient id="paint5_linear_414_71" x1="318.553" y1="618.294" x2="480.093" y2="618.294" gradientUnits="userSpaceOnUse">
<stop stop-color="#3C1872"/>
<stop offset="1" stop-color="#4030BC"/>
</linearGradient>
<linearGradient id="paint6_linear_414_71" x1="293.986" y1="654.522" x2="507.844" y2="654.522" gradientUnits="userSpaceOnUse">
<stop stop-color="#5618B8"/>
<stop offset="1" stop-color="#C7D7FF"/>
</linearGradient>
<linearGradient id="paint7_linear_414_71" x1="239.912" y1="339.59" x2="409.081" y2="431.725" gradientUnits="userSpaceOnUse">
<stop stop-color="#5618B8"/>
<stop offset="1" stop-color="#C7D7FF"/>
</linearGradient>
<linearGradient id="paint8_linear_414_71" x1="236.998" y1="344.918" x2="406.194" y2="437.041" gradientUnits="userSpaceOnUse">
<stop stop-color="#5618B8"/>
<stop offset="1" stop-color="#C7D7FF"/>
</linearGradient>
<linearGradient id="paint9_linear_414_71" x1="438.272" y1="224.569" x2="578.574" y2="286.36" gradientUnits="userSpaceOnUse">
<stop stop-color="#5618B8"/>
<stop offset="1" stop-color="#C7D7FF"/>
</linearGradient>
<linearGradient id="paint10_linear_414_71" x1="405.248" y1="299.469" x2="545.577" y2="361.271" gradientUnits="userSpaceOnUse">
<stop stop-color="#5618B8"/>
<stop offset="1" stop-color="#C7D7FF"/>
</linearGradient>
<linearGradient id="paint11_linear_414_71" x1="369.833" y1="80.4957" x2="432.328" y2="314.97" gradientUnits="userSpaceOnUse">
<stop stop-color="#5618B8"/>
<stop offset="1" stop-color="#C7D7FF"/>
</linearGradient>
<linearGradient id="paint12_linear_414_71" x1="425.832" y1="65.5653" x2="488.327" y2="300.04" gradientUnits="userSpaceOnUse">
<stop stop-color="#5618B8"/>
<stop offset="1" stop-color="#C7D7FF"/>
</linearGradient>
<linearGradient id="paint13_linear_414_71" x1="408.831" y1="120.893" x2="377.393" y2="767.975" gradientUnits="userSpaceOnUse">
<stop stop-color="#EBD938" stop-opacity="0"/>
<stop offset="1" stop-color="white"/>
</linearGradient>
</defs>
</svg>
